<?xml version="1.0" standalone="no"?>
<!DOCTYPE svg PUBLIC "-//W3C//DTD SVG 20010904//EN"
 "http://www.w3.org/TR/2001/REC-SVG-20010904/DTD/svg10.dtd">
<svg version="1.0" xmlns="http://www.w3.org/2000/svg"
 width="512.000000pt" height="512.000000pt" viewBox="0 0 512.000000 512.000000"
 preserveAspectRatio="xMidYMid meet">

<g transform="translate(0.000000,512.000000) scale(0.100000,-0.100000)"
fill="#000000" stroke="none">
<path d="M0 3853 c0 -1249 0 -1268 19 -1238 10 17 315 326 678 687 458 458
667 661 688 666 57 16 84 -2 247 -165 166 -166 187 -197 168 -249 -6 -17 -219
-237 -493 -511 l-482 -483 482 -482 c274 -275 487 -495 493 -512 19 -53 -1
-83 -173 -254 l-163 -162 -50 0 -49 0 -663 663 c-365 364 -673 676 -683 692
-19 30 -19 10 -19 -1237 l0 -1268 2560 0 2560 0 0 1268 c0 1247 0 1267 -19
1237 -10 -16 -318 -328 -683 -692 l-663 -663 -49 0 -50 0 -163 162 c-172 171
-192 201 -173 254 6 17 219 237 493 512 l482 482 -482 483 c-274 274 -487 494
-493 511 -19 53 1 83 173 254 l163 162 50 0 49 0 663 -662 c365 -365 673 -676
683 -693 19 -30 19 -10 19 1238 l0 1267 -2560 0 -2560 0 0 -1267z m3111 621
c154 -45 172 -54 193 -98 15 -32 15 -41 3 -88 -43 -160 -1062 -3598 -1074
-3621 -8 -16 -30 -35 -51 -44 -35 -15 -42 -14 -167 22 -161 46 -183 57 -201
101 -12 30 -13 42 -1 87 42 157 1062 3597 1074 3620 13 26 60 56 89 57 6 0 66
-16 135 -36z"/>
</g>
</svg>
